<svg xmlns="http://www.w3.org/2000/svg" width="1180" height="734" viewBox="0 0 1180 734" role="img">
  <defs><marker id="arrow" viewBox="0 0 10 10" refX="9" refY="5" markerWidth="7" markerHeight="7" orient="auto-start-reverse"><path d="M 0 1 L 10 5 L 0 9 z" fill="#555555"/></marker></defs>
  <rect width="100%" height="100%" fill="#ffffff"/>
  <path d="M 180.0 127.0 L 198.0 127.0 L 472.0 127.0 L 472.0 258.0 L 472.0 276.0" fill="none" stroke="#555555" stroke-width="1.3" stroke-linejoin="round" marker-end="url(#arrow)"/>
  <rect x="296.7" y="113.0" width="76.7" height="14.0" rx="2" fill="#ffffff" fill-opacity="0.92" stroke="none"/>
  <text x="335.0" y="120.0" font-family="-apple-system,BlinkMacSystemFont,'Segoe UI',Helvetica,Arial,sans-serif" font-size="9" font-weight="normal" fill="#666666" text-anchor="middle" dominant-baseline="middle">Ctrl+Alt+Space</text>
  <path d="M 290.0 259.0 L 308.0 259.0 L 360.0 259.0 L 360.0 318.2 L 412.0 318.2 L 430.0 318.2" fill="none" stroke="#555555" stroke-width="1.3" stroke-linejoin="round" marker-end="url(#arrow)"/>
  <rect x="300.6" y="245.0" width="66.9" height="14.0" rx="2" fill="#ffffff" fill-opacity="0.92" stroke="none"/>
  <text x="334.0" y="252.0" font-family="-apple-system,BlinkMacSystemFont,'Segoe UI',Helvetica,Arial,sans-serif" font-size="9" font-weight="normal" fill="#666666" text-anchor="middle" dominant-baseline="middle">audio stream</text>
  <path d="M 290.0 355.0 L 308.0 355.0 L 360.0 355.0 L 360.0 372.0 L 412.0 372.0 L 430.0 372.0" fill="none" stroke="#555555" stroke-width="1.3" stroke-linejoin="round" marker-end="url(#arrow)"/>
  <rect x="280.9" y="335.5" width="106.1" height="25.0" rx="2" fill="#ffffff" fill-opacity="0.92" stroke="none"/>
  <text x="334.0" y="342.2" font-family="-apple-system,BlinkMacSystemFont,'Segoe UI',Helvetica,Arial,sans-serif" font-size="9" font-weight="normal" fill="#666666" text-anchor="middle" dominant-baseline="middle">language, selection,</text>
  <text x="334.0" y="353.8" font-family="-apple-system,BlinkMacSystemFont,'Segoe UI',Helvetica,Arial,sans-serif" font-size="9" font-weight="normal" fill="#666666" text-anchor="middle" dominant-baseline="middle">surrounding code</text>
  <path d="M 290.0 446.0 L 308.0 446.0 L 360.0 446.0 L 360.0 425.8 L 412.0 425.8 L 430.0 425.8" fill="none" stroke="#555555" stroke-width="1.3" stroke-linejoin="round" marker-end="url(#arrow)"/>
  <rect x="285.9" y="432.0" width="96.3" height="14.0" rx="2" fill="#ffffff" fill-opacity="0.92" stroke="none"/>
  <text x="334.0" y="439.0" font-family="-apple-system,BlinkMacSystemFont,'Segoe UI',Helvetica,Arial,sans-serif" font-size="9" font-weight="normal" fill="#666666" text-anchor="middle" dominant-baseline="middle">candidate commands</text>
  <path d="M 710.0 318.2 L 728.0 318.2 L 770.0 318.2 L 770.0 211.0 L 812.0 211.0 L 830.0 211.0" fill="none" stroke="#555555" stroke-width="1.3" stroke-linejoin="round" marker-end="url(#arrow)"/>
  <rect x="726.8" y="257.6" width="86.5" height="14.0" rx="2" fill="#ffffff" fill-opacity="0.92" stroke="none"/>
  <text x="770.0" y="264.6" font-family="-apple-system,BlinkMacSystemFont,'Segoe UI',Helvetica,Arial,sans-serif" font-size="9" font-weight="normal" fill="#666666" text-anchor="middle" dominant-baseline="middle">executeCommand()</text>
  <path d="M 710.0 354.1 L 728.0 354.1 L 770.0 354.1 L 770.0 307.0 L 812.0 307.0 L 830.0 307.0" fill="none" stroke="#555555" stroke-width="1.3" stroke-linejoin="round" marker-end="url(#arrow)"/>
  <rect x="731.7" y="323.6" width="76.7" height="14.0" rx="2" fill="#ffffff" fill-opacity="0.92" stroke="none"/>
  <text x="770.0" y="330.6" font-family="-apple-system,BlinkMacSystemFont,'Segoe UI',Helvetica,Arial,sans-serif" font-size="9" font-weight="normal" fill="#666666" text-anchor="middle" dominant-baseline="middle">generated code</text>
  <path d="M 710.0 389.9 L 728.0 389.9 L 770.0 389.9 L 770.0 403.0 L 812.0 403.0 L 830.0 403.0" fill="none" stroke="#555555" stroke-width="1.3" stroke-linejoin="round" marker-end="url(#arrow)"/>
  <rect x="713.1" y="375.9" width="71.8" height="14.0" rx="2" fill="#ffffff" fill-opacity="0.92" stroke="none"/>
  <text x="749.0" y="382.9" font-family="-apple-system,BlinkMacSystemFont,'Segoe UI',Helvetica,Arial,sans-serif" font-size="9" font-weight="normal" fill="#666666" text-anchor="middle" dominant-baseline="middle">question text</text>
  <path d="M 710.0 425.8 L 728.0 425.8 L 770.0 425.8 L 770.0 499.0 L 812.0 499.0 L 830.0 499.0" fill="none" stroke="#555555" stroke-width="1.3" stroke-linejoin="round" marker-end="url(#arrow)"/>
  <rect x="736.6" y="455.4" width="66.9" height="14.0" rx="2" fill="#ffffff" fill-opacity="0.92" stroke="none"/>
  <text x="770.0" y="462.4" font-family="-apple-system,BlinkMacSystemFont,'Segoe UI',Helvetica,Arial,sans-serif" font-size="9" font-weight="normal" fill="#666666" text-anchor="middle" dominant-baseline="middle">confirmation</text>
  <text x="40.0" y="26.0" font-family="-apple-system,BlinkMacSystemFont,'Segoe UI',Helvetica,Arial,sans-serif" font-size="15.0" font-weight="bold" font-style="normal" fill="#222222" dominant-baseline="middle">Voice Input — Level 0 (Context)</text>
  <text x="40.0" y="49.0" font-family="-apple-system,BlinkMacSystemFont,'Segoe UI',Helvetica,Arial,sans-serif" font-size="11.0" font-weight="normal" font-style="italic" fill="#777777" dominant-baseline="middle">Spoken language becomes a command, generated code, or a tutor question — transcribed on-device.</text>
  <text x="40.0" y="86.0" font-family="-apple-system,BlinkMacSystemFont,'Segoe UI',Helvetica,Arial,sans-serif" font-size="10.0" font-weight="bold" font-style="normal" fill="#999999" dominant-baseline="middle">SOURCES</text>
  <text x="430.0" y="86.0" font-family="-apple-system,BlinkMacSystemFont,'Segoe UI',Helvetica,Arial,sans-serif" font-size="10.0" font-weight="bold" font-style="normal" fill="#999999" dominant-baseline="middle">PROCESS</text>
  <text x="830.0" y="86.0" font-family="-apple-system,BlinkMacSystemFont,'Segoe UI',Helvetica,Arial,sans-serif" font-size="10.0" font-weight="bold" font-style="normal" fill="#999999" dominant-baseline="middle">SINKS</text>
  <circle cx="160.0" cy="106.4" r="10.4" fill="#4a90d9"/>
  <path d="M 160.0 116.8 V 136.9 M 142.0 122.0 H 178.0 M 160.0 136.9 L 143.0 158.0 M 160.0 136.9 L 177.0 158.0" stroke="#4a90d9" stroke-width="2.4" fill="none" stroke-linecap="round"/>
  <text x="160.0" y="165.6" font-family="-apple-system,BlinkMacSystemFont,'Segoe UI',Helvetica,Arial,sans-serif" font-size="10" font-weight="normal" fill="#555555" text-anchor="middle" dominant-baseline="middle">Users</text>
  <text x="160.0" y="178.4" font-family="-apple-system,BlinkMacSystemFont,'Segoe UI',Helvetica,Arial,sans-serif" font-size="10" font-weight="normal" fill="#555555" text-anchor="middle" dominant-baseline="middle">(BVI programmer)</text>
  <rect x="40.0" y="228.0" width="250.0" height="62.0" rx="0" fill="#f5f5f5" stroke="#9a9a9a"/>
  <text x="165.0" y="252.0" font-family="-apple-system,BlinkMacSystemFont,'Segoe UI',Helvetica,Arial,sans-serif" font-size="11.0" font-weight="normal" fill="#333333" text-anchor="middle" dominant-baseline="middle">Microphone</text>
  <text x="165.0" y="266.0" font-family="-apple-system,BlinkMacSystemFont,'Segoe UI',Helvetica,Arial,sans-serif" font-size="11.0" font-weight="normal" fill="#333333" text-anchor="middle" dominant-baseline="middle">(Input Layer)</text>
  <rect x="40.0" y="324.0" width="250.0" height="62.0" rx="0" fill="#f5f5f5" stroke="#9a9a9a"/>
  <text x="165.0" y="348.0" font-family="-apple-system,BlinkMacSystemFont,'Segoe UI',Helvetica,Arial,sans-serif" font-size="11.0" font-weight="normal" fill="#333333" text-anchor="middle" dominant-baseline="middle">Editor Context</text>
  <text x="165.0" y="362.0" font-family="-apple-system,BlinkMacSystemFont,'Segoe UI',Helvetica,Arial,sans-serif" font-size="11.0" font-weight="normal" fill="#333333" text-anchor="middle" dominant-baseline="middle">(VS Code Environment)</text>
  <path d="M 40.0 426.8 A 125.0 6.8 0 0 1 290.0 426.8 V 465.2 A 125.0 6.8 0 0 1 40.0 465.2 Z" fill="#d5e8d4" stroke="#82b366"/>
  <path d="M 40.0 426.8 A 125.0 6.8 0 0 0 290.0 426.8" fill="none" stroke="#82b366"/>
  <text x="165.0" y="443.0" font-family="-apple-system,BlinkMacSystemFont,'Segoe UI',Helvetica,Arial,sans-serif" font-size="10.0" font-weight="normal" fill="#333333" text-anchor="middle" dominant-baseline="middle">Command Registry</text>
  <text x="165.0" y="455.8" font-family="-apple-system,BlinkMacSystemFont,'Segoe UI',Helvetica,Arial,sans-serif" font-size="10.0" font-weight="normal" fill="#333333" text-anchor="middle" dominant-baseline="middle">(voice_commands.json + VS Code)</text>
  <rect x="430.0" y="276.0" width="280.0" height="192.0" rx="6" fill="#ffffff" stroke="#d98cc4"/>
  <text x="570.0" y="357.9" font-family="-apple-system,BlinkMacSystemFont,'Segoe UI',Helvetica,Arial,sans-serif" font-size="11.0" font-weight="normal" fill="#333333" text-anchor="middle" dominant-baseline="middle">1.0</text>
  <text x="570.0" y="386.1" font-family="-apple-system,BlinkMacSystemFont,'Segoe UI',Helvetica,Arial,sans-serif" font-size="11.0" font-weight="normal" fill="#333333" text-anchor="middle" dominant-baseline="middle">Voice Input</text>
  <rect x="830.0" y="180.0" width="250.0" height="62.0" rx="0" fill="#ffffff" stroke="#9a9a9a"/>
  <text x="955.0" y="204.0" font-family="-apple-system,BlinkMacSystemFont,'Segoe UI',Helvetica,Arial,sans-serif" font-size="11.0" font-weight="normal" fill="#333333" text-anchor="middle" dominant-baseline="middle">External Commands /</text>
  <text x="955.0" y="218.0" font-family="-apple-system,BlinkMacSystemFont,'Segoe UI',Helvetica,Arial,sans-serif" font-size="11.0" font-weight="normal" fill="#333333" text-anchor="middle" dominant-baseline="middle">Extensions</text>
  <rect x="830.0" y="276.0" width="250.0" height="62.0" rx="0" fill="#ffffff" stroke="#9a9a9a"/>
  <text x="955.0" y="300.0" font-family="-apple-system,BlinkMacSystemFont,'Segoe UI',Helvetica,Arial,sans-serif" font-size="11.0" font-weight="normal" fill="#333333" text-anchor="middle" dominant-baseline="middle">Editor</text>
  <text x="955.0" y="314.0" font-family="-apple-system,BlinkMacSystemFont,'Segoe UI',Helvetica,Arial,sans-serif" font-size="11.0" font-weight="normal" fill="#333333" text-anchor="middle" dominant-baseline="middle">(inserted code)</text>
  <rect x="830.0" y="372.0" width="250.0" height="62.0" rx="0" fill="#ffffff" stroke="#9a9a9a"/>
  <text x="955.0" y="403.0" font-family="-apple-system,BlinkMacSystemFont,'Segoe UI',Helvetica,Arial,sans-serif" font-size="11.0" font-weight="normal" fill="#333333" text-anchor="middle" dominant-baseline="middle">Chat Tutor</text>
  <rect x="830.0" y="468.0" width="250.0" height="62.0" rx="0" fill="#e8f5e9" stroke="#66a06a"/>
  <text x="955.0" y="499.0" font-family="-apple-system,BlinkMacSystemFont,'Segoe UI',Helvetica,Arial,sans-serif" font-size="11.0" font-weight="normal" fill="#333333" text-anchor="middle" dominant-baseline="middle">Speech Output / TTS</text>
  <path d="M 430.0 594.0 H 776.0 L 790.0 608.0 V 672.0 H 430.0 Z" fill="#fff2cc" stroke="#d6b656"/>
  <path d="M 776.0 594.0 V 608.0 H 790.0" fill="none" stroke="#d6b656"/>
  <text x="439.0" y="609.0" font-family="-apple-system,BlinkMacSystemFont,'Segoe UI',Helvetica,Arial,sans-serif" font-size="10.0" fill="#6b5c22" dominant-baseline="middle">Transcription is local (faster-whisper). Audio never leaves</text>
  <text x="439.0" y="622.0" font-family="-apple-system,BlinkMacSystemFont,'Segoe UI',Helvetica,Arial,sans-serif" font-size="10.0" fill="#6b5c22" dominant-baseline="middle">the machine; only the resulting text may reach the AI layer.</text>
</svg>
