<svg xmlns="http://www.w3.org/2000/svg" width="1180" height="734" viewBox="0 0 1180 734" role="img">
  <defs><marker id="arrow" viewBox="0 0 10 10" refX="9" refY="5" markerWidth="7" markerHeight="7" orient="auto-start-reverse"><path d="M 0 1 L 10 5 L 0 9 z" fill="#555555"/></marker></defs>
  <rect width="100%" height="100%" fill="#ffffff"/>
  <path d="M 180.0 127.0 L 198.0 127.0 L 472.0 127.0 L 472.0 258.0 L 472.0 276.0" fill="none" stroke="#555555" stroke-width="1.3" stroke-linejoin="round" marker-end="url(#arrow)"/>
  <rect x="274.6" y="107.5" width="120.8" height="25.0" rx="2" fill="#ffffff" fill-opacity="0.92" stroke="none"/>
  <text x="335.0" y="114.2" font-family="-apple-system,BlinkMacSystemFont,'Segoe UI',Helvetica,Arial,sans-serif" font-size="9" font-weight="normal" fill="#666666" text-anchor="middle" dominant-baseline="middle">first run, or Select AI</text>
  <text x="335.0" y="125.8" font-family="-apple-system,BlinkMacSystemFont,'Segoe UI',Helvetica,Arial,sans-serif" font-size="9" font-weight="normal" fill="#666666" text-anchor="middle" dominant-baseline="middle">Provider</text>
  <path d="M 290.0 307.0 L 308.0 307.0 L 360.0 307.0 L 360.0 318.2 L 412.0 318.2 L 430.0 318.2" fill="none" stroke="#555555" stroke-width="1.3" stroke-linejoin="round" marker-end="url(#arrow)"/>
  <rect x="293.2" y="293.0" width="81.6" height="14.0" rx="2" fill="#ffffff" fill-opacity="0.92" stroke="none"/>
  <text x="334.0" y="300.0" font-family="-apple-system,BlinkMacSystemFont,'Segoe UI',Helvetica,Arial,sans-serif" font-size="9" font-weight="normal" fill="#666666" text-anchor="middle" dominant-baseline="middle">capability scan</text>
  <path d="M 290.0 398.0 L 308.0 398.0 L 360.0 398.0 L 360.0 425.8 L 412.0 425.8 L 430.0 425.8" fill="none" stroke="#555555" stroke-width="1.3" stroke-linejoin="round" marker-end="url(#arrow)"/>
  <rect x="295.7" y="384.0" width="76.7" height="14.0" rx="2" fill="#ffffff" fill-opacity="0.92" stroke="none"/>
  <text x="334.0" y="391.0" font-family="-apple-system,BlinkMacSystemFont,'Segoe UI',Helvetica,Arial,sans-serif" font-size="9" font-weight="normal" fill="#666666" text-anchor="middle" dominant-baseline="middle">current config</text>
  <path d="M 710.0 318.2 L 728.0 318.2 L 770.0 318.2 L 770.0 211.0 L 812.0 211.0 L 830.0 211.0" fill="none" stroke="#555555" stroke-width="1.3" stroke-linejoin="round" marker-end="url(#arrow)"/>
  <rect x="731.7" y="257.6" width="76.7" height="14.0" rx="2" fill="#ffffff" fill-opacity="0.92" stroke="none"/>
  <text x="770.0" y="264.6" font-family="-apple-system,BlinkMacSystemFont,'Segoe UI',Helvetica,Arial,sans-serif" font-size="9" font-weight="normal" fill="#666666" text-anchor="middle" dominant-baseline="middle">probe + verify</text>
  <path d="M 710.0 354.1 L 728.0 354.1 L 770.0 354.1 L 770.0 302.0 L 812.0 302.0 L 830.0 302.0" fill="none" stroke="#555555" stroke-width="1.3" stroke-linejoin="round" marker-end="url(#arrow)"/>
  <rect x="731.7" y="321.1" width="76.7" height="14.0" rx="2" fill="#ffffff" fill-opacity="0.92" stroke="none"/>
  <text x="770.0" y="328.1" font-family="-apple-system,BlinkMacSystemFont,'Segoe UI',Helvetica,Arial,sans-serif" font-size="9" font-weight="normal" fill="#666666" text-anchor="middle" dominant-baseline="middle">persist choice</text>
  <path d="M 710.0 389.9 L 728.0 389.9 L 770.0 389.9 L 770.0 403.0 L 812.0 403.0 L 830.0 403.0" fill="none" stroke="#555555" stroke-width="1.3" stroke-linejoin="round" marker-end="url(#arrow)"/>
  <rect x="713.1" y="375.9" width="71.8" height="14.0" rx="2" fill="#ffffff" fill-opacity="0.92" stroke="none"/>
  <text x="749.0" y="382.9" font-family="-apple-system,BlinkMacSystemFont,'Segoe UI',Helvetica,Arial,sans-serif" font-size="9" font-weight="normal" fill="#666666" text-anchor="middle" dominant-baseline="middle">store API key</text>
  <path d="M 710.0 425.8 L 728.0 425.8 L 770.0 425.8 L 770.0 499.0 L 812.0 499.0 L 830.0 499.0" fill="none" stroke="#555555" stroke-width="1.3" stroke-linejoin="round" marker-end="url(#arrow)"/>
  <rect x="724.3" y="455.4" width="91.4" height="14.0" rx="2" fill="#ffffff" fill-opacity="0.92" stroke="none"/>
  <text x="770.0" y="462.4" font-family="-apple-system,BlinkMacSystemFont,'Segoe UI',Helvetica,Arial,sans-serif" font-size="9" font-weight="normal" fill="#666666" text-anchor="middle" dominant-baseline="middle">announced options</text>
  <text x="40.0" y="26.0" font-family="-apple-system,BlinkMacSystemFont,'Segoe UI',Helvetica,Arial,sans-serif" font-size="15.0" font-weight="bold" font-style="normal" fill="#222222" dominant-baseline="middle">AI Provider and Model Selection — Level 0 (Context)</text>
  <text x="40.0" y="49.0" font-family="-apple-system,BlinkMacSystemFont,'Segoe UI',Helvetica,Arial,sans-serif" font-size="11.0" font-weight="normal" font-style="italic" fill="#777777" dominant-baseline="middle">Choose and verify the backend every AI feature routes through: Copilot, local Ollama, or a hosted API.</text>
  <text x="40.0" y="86.0" font-family="-apple-system,BlinkMacSystemFont,'Segoe UI',Helvetica,Arial,sans-serif" font-size="10.0" font-weight="bold" font-style="normal" fill="#999999" dominant-baseline="middle">SOURCES</text>
  <text x="430.0" y="86.0" font-family="-apple-system,BlinkMacSystemFont,'Segoe UI',Helvetica,Arial,sans-serif" font-size="10.0" font-weight="bold" font-style="normal" fill="#999999" dominant-baseline="middle">PROCESS</text>
  <text x="830.0" y="86.0" font-family="-apple-system,BlinkMacSystemFont,'Segoe UI',Helvetica,Arial,sans-serif" font-size="10.0" font-weight="bold" font-style="normal" fill="#999999" dominant-baseline="middle">SINKS</text>
  <circle cx="160.0" cy="106.4" r="10.4" fill="#4a90d9"/>
  <path d="M 160.0 116.8 V 136.9 M 142.0 122.0 H 178.0 M 160.0 136.9 L 143.0 158.0 M 160.0 136.9 L 177.0 158.0" stroke="#4a90d9" stroke-width="2.4" fill="none" stroke-linecap="round"/>
  <text x="160.0" y="165.6" font-family="-apple-system,BlinkMacSystemFont,'Segoe UI',Helvetica,Arial,sans-serif" font-size="10" font-weight="normal" fill="#555555" text-anchor="middle" dominant-baseline="middle">Users</text>
  <text x="160.0" y="178.4" font-family="-apple-system,BlinkMacSystemFont,'Segoe UI',Helvetica,Arial,sans-serif" font-size="10" font-weight="normal" fill="#555555" text-anchor="middle" dominant-baseline="middle">(BVI programmer)</text>
  <rect x="40.0" y="276.0" width="250.0" height="62.0" rx="0" fill="#f5f5f5" stroke="#9a9a9a"/>
  <text x="165.0" y="300.0" font-family="-apple-system,BlinkMacSystemFont,'Segoe UI',Helvetica,Arial,sans-serif" font-size="11.0" font-weight="normal" fill="#333333" text-anchor="middle" dominant-baseline="middle">Machine specs</text>
  <text x="165.0" y="314.0" font-family="-apple-system,BlinkMacSystemFont,'Segoe UI',Helvetica,Arial,sans-serif" font-size="11.0" font-weight="normal" fill="#333333" text-anchor="middle" dominant-baseline="middle">(CPU, RAM, GPU)</text>
  <path d="M 40.0 378.8 A 125.0 6.8 0 0 1 290.0 378.8 V 417.2 A 125.0 6.8 0 0 1 40.0 417.2 Z" fill="#d5e8d4" stroke="#82b366"/>
  <path d="M 40.0 378.8 A 125.0 6.8 0 0 0 290.0 378.8" fill="none" stroke="#82b366"/>
  <text x="165.0" y="401.4" font-family="-apple-system,BlinkMacSystemFont,'Segoe UI',Helvetica,Arial,sans-serif" font-size="10.0" font-weight="normal" fill="#333333" text-anchor="middle" dominant-baseline="middle">Stored settings + key</text>
  <rect x="430.0" y="276.0" width="280.0" height="192.0" rx="6" fill="#ffffff" stroke="#d98cc4"/>
  <text x="570.0" y="357.9" font-family="-apple-system,BlinkMacSystemFont,'Segoe UI',Helvetica,Arial,sans-serif" font-size="11.0" font-weight="normal" fill="#333333" text-anchor="middle" dominant-baseline="middle">11.0</text>
  <text x="570.0" y="386.1" font-family="-apple-system,BlinkMacSystemFont,'Segoe UI',Helvetica,Arial,sans-serif" font-size="11.0" font-weight="normal" fill="#333333" text-anchor="middle" dominant-baseline="middle">AI Provider and Model Selection</text>
  <rect x="830.0" y="180.0" width="250.0" height="62.0" rx="6" fill="#f3eafa" stroke="#b39ddb"/>
  <text x="955.0" y="204.0" font-family="-apple-system,BlinkMacSystemFont,'Segoe UI',Helvetica,Arial,sans-serif" font-size="11.0" font-weight="normal" fill="#333333" text-anchor="middle" dominant-baseline="middle">AI Services</text>
  <text x="955.0" y="218.0" font-family="-apple-system,BlinkMacSystemFont,'Segoe UI',Helvetica,Arial,sans-serif" font-size="11.0" font-weight="normal" fill="#333333" text-anchor="middle" dominant-baseline="middle">(Copilot / Ollama / API)</text>
  <path d="M 830.0 282.8 A 125.0 6.8 0 0 1 1080.0 282.8 V 321.2 A 125.0 6.8 0 0 1 830.0 321.2 Z" fill="#d5e8d4" stroke="#82b366"/>
  <path d="M 830.0 282.8 A 125.0 6.8 0 0 0 1080.0 282.8" fill="none" stroke="#82b366"/>
  <text x="955.0" y="299.0" font-family="-apple-system,BlinkMacSystemFont,'Segoe UI',Helvetica,Arial,sans-serif" font-size="10.0" font-weight="normal" fill="#333333" text-anchor="middle" dominant-baseline="middle">Local Storage &amp; State</text>
  <text x="955.0" y="311.8" font-family="-apple-system,BlinkMacSystemFont,'Segoe UI',Helvetica,Arial,sans-serif" font-size="10.0" font-weight="normal" fill="#333333" text-anchor="middle" dominant-baseline="middle">(settings)</text>
  <rect x="830.0" y="372.0" width="250.0" height="62.0" rx="0" fill="#ffffff" stroke="#9a9a9a"/>
  <text x="955.0" y="396.0" font-family="-apple-system,BlinkMacSystemFont,'Segoe UI',Helvetica,Arial,sans-serif" font-size="11.0" font-weight="normal" fill="#333333" text-anchor="middle" dominant-baseline="middle">OS keychain</text>
  <text x="955.0" y="410.0" font-family="-apple-system,BlinkMacSystemFont,'Segoe UI',Helvetica,Arial,sans-serif" font-size="11.0" font-weight="normal" fill="#333333" text-anchor="middle" dominant-baseline="middle">(context.secrets)</text>
  <rect x="830.0" y="468.0" width="250.0" height="62.0" rx="0" fill="#e8f5e9" stroke="#66a06a"/>
  <text x="955.0" y="499.0" font-family="-apple-system,BlinkMacSystemFont,'Segoe UI',Helvetica,Arial,sans-serif" font-size="11.0" font-weight="normal" fill="#333333" text-anchor="middle" dominant-baseline="middle">Speech Output / TTS</text>
  <path d="M 430.0 594.0 H 776.0 L 790.0 608.0 V 672.0 H 430.0 Z" fill="#fff2cc" stroke="#d6b656"/>
  <path d="M 776.0 594.0 V 608.0 H 790.0" fill="none" stroke="#d6b656"/>
  <text x="439.0" y="609.0" font-family="-apple-system,BlinkMacSystemFont,'Segoe UI',Helvetica,Arial,sans-serif" font-size="10.0" fill="#6b5c22" dominant-baseline="middle">Provider probes run concurrently and are individually capped,</text>
  <text x="439.0" y="622.0" font-family="-apple-system,BlinkMacSystemFont,'Segoe UI',Helvetica,Arial,sans-serif" font-size="10.0" fill="#6b5c22" dominant-baseline="middle">so the picker opens in ~3s rather than the sum of three waits.</text>
</svg>
