<svg xmlns="http://www.w3.org/2000/svg" width="1180" height="720" viewBox="0 0 1180 720" role="img">
  <defs><marker id="arrow" viewBox="0 0 10 10" refX="9" refY="5" markerWidth="7" markerHeight="7" orient="auto-start-reverse"><path d="M 0 1 L 10 5 L 0 9 z" fill="#555555"/></marker></defs>
  <rect width="100%" height="100%" fill="#ffffff"/>
  <path d="M 180.0 127.0 L 198.0 127.0 L 472.0 127.0 L 472.0 234.0 L 472.0 252.0" fill="none" stroke="#555555" stroke-width="1.3" stroke-linejoin="round" marker-end="url(#arrow)"/>
  <rect x="289.3" y="107.5" width="91.4" height="25.0" rx="2" fill="#ffffff" fill-opacity="0.92" stroke="none"/>
  <text x="335.0" y="114.2" font-family="-apple-system,BlinkMacSystemFont,'Segoe UI',Helvetica,Arial,sans-serif" font-size="9" font-weight="normal" fill="#666666" text-anchor="middle" dominant-baseline="middle">any feature calls</text>
  <text x="335.0" y="125.8" font-family="-apple-system,BlinkMacSystemFont,'Segoe UI',Helvetica,Arial,sans-serif" font-size="9" font-weight="normal" fill="#666666" text-anchor="middle" dominant-baseline="middle">speakMessage()</text>
  <path d="M 290.0 211.0 L 308.0 211.0 L 360.0 211.0 L 360.0 283.7 L 412.0 283.7 L 430.0 283.7" fill="none" stroke="#555555" stroke-width="1.3" stroke-linejoin="round" marker-end="url(#arrow)"/>
  <rect x="298.1" y="197.0" width="71.8" height="14.0" rx="2" fill="#ffffff" fill-opacity="0.92" stroke="none"/>
  <text x="334.0" y="204.0" font-family="-apple-system,BlinkMacSystemFont,'Segoe UI',Helvetica,Arial,sans-serif" font-size="9" font-weight="normal" fill="#666666" text-anchor="middle" dominant-baseline="middle">text to speak</text>
  <path d="M 290.0 302.0 L 308.0 302.0 L 360.0 302.0 L 360.0 324.0 L 412.0 324.0 L 430.0 324.0" fill="none" stroke="#555555" stroke-width="1.3" stroke-linejoin="round" marker-end="url(#arrow)"/>
  <rect x="320.2" y="288.0" width="27.6" height="14.0" rx="2" fill="#ffffff" fill-opacity="0.92" stroke="none"/>
  <text x="334.0" y="295.0" font-family="-apple-system,BlinkMacSystemFont,'Segoe UI',Helvetica,Arial,sans-serif" font-size="9" font-weight="normal" fill="#666666" text-anchor="middle" dominant-baseline="middle">rate</text>
  <path d="M 290.0 403.0 L 308.0 403.0 L 360.0 403.0 L 360.0 364.3 L 412.0 364.3 L 430.0 364.3" fill="none" stroke="#555555" stroke-width="1.3" stroke-linejoin="round" marker-end="url(#arrow)"/>
  <rect x="300.6" y="389.0" width="66.9" height="14.0" rx="2" fill="#ffffff" fill-opacity="0.92" stroke="none"/>
  <text x="334.0" y="396.0" font-family="-apple-system,BlinkMacSystemFont,'Segoe UI',Helvetica,Arial,sans-serif" font-size="9" font-weight="normal" fill="#666666" text-anchor="middle" dominant-baseline="middle">stop request</text>
  <path d="M 710.0 283.7 L 728.0 283.7 L 770.0 283.7 L 770.0 259.0 L 812.0 259.0 L 830.0 259.0" fill="none" stroke="#555555" stroke-width="1.3" stroke-linejoin="round" marker-end="url(#arrow)"/>
  <rect x="698.4" y="269.7" width="101.2" height="14.0" rx="2" fill="#ffffff" fill-opacity="0.92" stroke="none"/>
  <text x="749.0" y="276.7" font-family="-apple-system,BlinkMacSystemFont,'Segoe UI',Helvetica,Arial,sans-serif" font-size="9" font-weight="normal" fill="#666666" text-anchor="middle" dominant-baseline="middle">spawn one utterance</text>
  <path d="M 710.0 364.3 L 728.0 364.3 L 770.0 364.3 L 770.0 355.0 L 812.0 355.0 L 830.0 355.0" fill="none" stroke="#555555" stroke-width="1.3" stroke-linejoin="round" marker-end="url(#arrow)"/>
  <rect x="715.6" y="350.3" width="66.9" height="14.0" rx="2" fill="#ffffff" fill-opacity="0.92" stroke="none"/>
  <text x="749.0" y="357.3" font-family="-apple-system,BlinkMacSystemFont,'Segoe UI',Helvetica,Arial,sans-serif" font-size="9" font-weight="normal" fill="#666666" text-anchor="middle" dominant-baseline="middle">spoken audio</text>
  <text x="40.0" y="26.0" font-family="-apple-system,BlinkMacSystemFont,'Segoe UI',Helvetica,Arial,sans-serif" font-size="15.0" font-weight="bold" font-style="normal" fill="#222222" dominant-baseline="middle">Speech Output / TTS — Level 0 (Context)</text>
  <text x="40.0" y="49.0" font-family="-apple-system,BlinkMacSystemFont,'Segoe UI',Helvetica,Arial,sans-serif" font-size="11.0" font-weight="normal" font-style="italic" fill="#777777" dominant-baseline="middle">The single sink every other feature speaks through. Interrupts rather than queues, and never overlaps.</text>
  <text x="40.0" y="86.0" font-family="-apple-system,BlinkMacSystemFont,'Segoe UI',Helvetica,Arial,sans-serif" font-size="10.0" font-weight="bold" font-style="normal" fill="#999999" dominant-baseline="middle">SOURCES</text>
  <text x="430.0" y="86.0" font-family="-apple-system,BlinkMacSystemFont,'Segoe UI',Helvetica,Arial,sans-serif" font-size="10.0" font-weight="bold" font-style="normal" fill="#999999" dominant-baseline="middle">PROCESS</text>
  <text x="830.0" y="86.0" font-family="-apple-system,BlinkMacSystemFont,'Segoe UI',Helvetica,Arial,sans-serif" font-size="10.0" font-weight="bold" font-style="normal" fill="#999999" dominant-baseline="middle">SINKS</text>
  <circle cx="160.0" cy="106.4" r="10.4" fill="#4a90d9"/>
  <path d="M 160.0 116.8 V 136.9 M 142.0 122.0 H 178.0 M 160.0 136.9 L 143.0 158.0 M 160.0 136.9 L 177.0 158.0" stroke="#4a90d9" stroke-width="2.4" fill="none" stroke-linecap="round"/>
  <text x="160.0" y="165.6" font-family="-apple-system,BlinkMacSystemFont,'Segoe UI',Helvetica,Arial,sans-serif" font-size="10" font-weight="normal" fill="#555555" text-anchor="middle" dominant-baseline="middle">Users</text>
  <text x="160.0" y="178.4" font-family="-apple-system,BlinkMacSystemFont,'Segoe UI',Helvetica,Arial,sans-serif" font-size="10" font-weight="normal" fill="#555555" text-anchor="middle" dominant-baseline="middle">(BVI programmer)</text>
  <rect x="40.0" y="180.0" width="250.0" height="62.0" rx="0" fill="#f5f5f5" stroke="#9a9a9a"/>
  <text x="165.0" y="204.0" font-family="-apple-system,BlinkMacSystemFont,'Segoe UI',Helvetica,Arial,sans-serif" font-size="11.0" font-weight="normal" fill="#333333" text-anchor="middle" dominant-baseline="middle">116 call sites</text>
  <text x="165.0" y="218.0" font-family="-apple-system,BlinkMacSystemFont,'Segoe UI',Helvetica,Arial,sans-serif" font-size="11.0" font-weight="normal" fill="#333333" text-anchor="middle" dominant-baseline="middle">(26 modules)</text>
  <path d="M 40.0 282.8 A 125.0 6.8 0 0 1 290.0 282.8 V 321.2 A 125.0 6.8 0 0 1 40.0 321.2 Z" fill="#d5e8d4" stroke="#82b366"/>
  <path d="M 40.0 282.8 A 125.0 6.8 0 0 0 290.0 282.8" fill="none" stroke="#82b366"/>
  <text x="165.0" y="305.4" font-family="-apple-system,BlinkMacSystemFont,'Segoe UI',Helvetica,Arial,sans-serif" font-size="10.0" font-weight="normal" fill="#333333" text-anchor="middle" dominant-baseline="middle">Speech speed setting</text>
  <rect x="40.0" y="372.0" width="250.0" height="62.0" rx="0" fill="#f5f5f5" stroke="#9a9a9a"/>
  <text x="165.0" y="403.0" font-family="-apple-system,BlinkMacSystemFont,'Segoe UI',Helvetica,Arial,sans-serif" font-size="11.0" font-weight="normal" fill="#333333" text-anchor="middle" dominant-baseline="middle">Ctrl+Alt+X</text>
  <rect x="430.0" y="252.0" width="280.0" height="144.0" rx="6" fill="#ffffff" stroke="#d98cc4"/>
  <text x="570.0" y="309.9" font-family="-apple-system,BlinkMacSystemFont,'Segoe UI',Helvetica,Arial,sans-serif" font-size="11.0" font-weight="normal" fill="#333333" text-anchor="middle" dominant-baseline="middle">14.0</text>
  <text x="570.0" y="338.1" font-family="-apple-system,BlinkMacSystemFont,'Segoe UI',Helvetica,Arial,sans-serif" font-size="11.0" font-weight="normal" fill="#333333" text-anchor="middle" dominant-baseline="middle">Speech Output / TTS</text>
  <rect x="830.0" y="228.0" width="250.0" height="62.0" rx="0" fill="#ffffff" stroke="#9a9a9a"/>
  <text x="955.0" y="252.0" font-family="-apple-system,BlinkMacSystemFont,'Segoe UI',Helvetica,Arial,sans-serif" font-size="11.0" font-weight="normal" fill="#333333" text-anchor="middle" dominant-baseline="middle">Speech Services</text>
  <text x="955.0" y="266.0" font-family="-apple-system,BlinkMacSystemFont,'Segoe UI',Helvetica,Arial,sans-serif" font-size="11.0" font-weight="normal" fill="#333333" text-anchor="middle" dominant-baseline="middle">(OS TTS via say.js)</text>
  <rect x="830.0" y="324.0" width="250.0" height="62.0" rx="0" fill="#ffffff" stroke="#9a9a9a"/>
  <text x="955.0" y="355.0" font-family="-apple-system,BlinkMacSystemFont,'Segoe UI',Helvetica,Arial,sans-serif" font-size="11.0" font-weight="normal" fill="#333333" text-anchor="middle" dominant-baseline="middle">Audio output</text>
  <path d="M 430.0 498.0 H 776.0 L 790.0 512.0 V 576.0 H 430.0 Z" fill="#fff2cc" stroke="#d6b656"/>
  <path d="M 776.0 498.0 V 512.0 H 790.0" fill="none" stroke="#d6b656"/>
  <text x="439.0" y="513.0" font-family="-apple-system,BlinkMacSystemFont,'Segoe UI',Helvetica,Arial,sans-serif" font-size="10.0" fill="#6b5c22" dominant-baseline="middle">say.js holds one overwritable child handle, so spawning while</text>
  <text x="439.0" y="526.0" font-family="-apple-system,BlinkMacSystemFont,'Segoe UI',Helvetica,Arial,sans-serif" font-size="10.0" fill="#6b5c22" dominant-baseline="middle">audio plays orphans the old process. An interrupt must wait</text>
  <text x="439.0" y="539.0" font-family="-apple-system,BlinkMacSystemFont,'Segoe UI',Helvetica,Arial,sans-serif" font-size="10.0" fill="#6b5c22" dominant-baseline="middle">for exit.</text>
</svg>
